<svg width="40" height="33" viewBox="0 0 40 33" fill="none" xmlns="http://www.w3.org/2000/svg">
<path d="M17.432 32.7521L13.6195 31.6458C13.2195 31.5333 12.9945 31.1146 13.107 30.7146L21.6382 1.32707C21.7507 0.927071 22.1695 0.702071 22.5695 0.814571L26.382 1.92082C26.782 2.03332 27.007 2.45207 26.8945 2.85207L18.3632 32.2396C18.2445 32.6396 17.832 32.8708 17.432 32.7521ZM10.307 25.7396L13.0257 22.8396C13.3132 22.5333 13.2945 22.0458 12.9757 21.7646L7.31321 16.7833L12.9757 11.8021C13.2945 11.5208 13.3195 11.0333 13.0257 10.7271L10.307 7.82707C10.0257 7.52707 9.55071 7.50832 9.24446 7.79582L0.238208 16.2333C-0.080542 16.5271 -0.080542 17.0333 0.238208 17.3271L9.24446 25.7708C9.55071 26.0583 10.0257 26.0458 10.307 25.7396ZM30.757 25.7771L39.7632 17.3333C40.082 17.0396 40.082 16.5333 39.7632 16.2396L30.757 7.78957C30.457 7.50832 29.982 7.52082 29.6945 7.82082L26.9757 10.7208C26.6882 11.0271 26.707 11.5146 27.0257 11.7958L32.6882 16.7833L27.0257 21.7646C26.707 22.0458 26.682 22.5333 26.9757 22.8396L29.6945 25.7396C29.9757 26.0458 30.4507 26.0583 30.757 25.7771Z" fill="#272847"/>
</svg>
