<svg width="38" height="45" viewBox="0 0 38 45" fill="none" xmlns="http://www.w3.org/2000/svg">
<path d="M31.3732 24.0239C31.3536 20.4399 32.9747 17.7349 36.256 15.7427C34.42 13.1157 31.6466 11.6704 27.9845 11.3872C24.5177 11.1138 20.7286 13.4087 19.3419 13.4087C17.8771 13.4087 14.5177 11.4849 11.881 11.4849C6.43176 11.5728 0.640747 15.8306 0.640747 24.4927C0.640747 27.0513 1.1095 29.6945 2.047 32.4224C3.297 36.0063 7.80872 44.7954 12.5157 44.6489C14.9767 44.5903 16.715 42.9009 19.9181 42.9009C23.0236 42.9009 24.6349 44.6489 27.379 44.6489C32.1251 44.5806 36.2072 36.5923 37.3986 32.9985C31.0314 30.0005 31.3732 24.2095 31.3732 24.0239ZM25.8458 7.98877C28.5118 4.82471 28.2677 1.94385 28.1896 0.908691C25.8361 1.04541 23.1115 2.51025 21.5587 4.31689C19.8497 6.25049 18.8439 8.64307 19.0587 11.3384C21.6075 11.5337 23.9318 10.2251 25.8458 7.98877Z" fill="#272847"/>
</svg>
