<svg width="75" height="69" viewBox="0 0 75 69" fill="none" xmlns="http://www.w3.org/2000/svg">
<rect x="0.00012207" y="0.287598" width="75" height="68" rx="34" fill="white"/>
<path d="M50.606 20.2876L54.9619 25.0438C51.5995 28.1123 49.4725 30.2474 48.5809 31.4492C47.6894 32.6255 46.9761 34.0702 46.4412 35.7835C46.9252 35.4255 47.4091 35.1698 47.8931 35.0164C48.4026 34.8374 48.9121 34.7479 49.4215 34.7479C50.899 34.7479 52.1981 35.3616 53.3189 36.589C54.4397 37.8164 55.0001 39.2995 55.0001 41.0383C55.0001 43.0839 54.2869 44.81 52.8604 46.2164C51.4339 47.5972 49.7017 48.2876 47.6639 48.2876C46.161 48.2876 44.709 47.8657 43.308 47.0218C41.9324 46.1524 40.8498 44.9762 40.0602 43.4931C39.296 41.9844 38.9139 40.2456 38.9139 38.2766C38.9139 35.0292 39.9837 31.8584 42.1235 28.7643C44.2887 25.6702 47.1162 22.8447 50.606 20.2876ZM31.6923 20.2876L36.0482 25.0438C32.6602 28.1123 30.5205 30.2474 29.6289 31.4492C28.7629 32.6255 28.0623 34.0702 27.5274 35.7835C28.0114 35.4255 28.4954 35.1698 28.9794 35.0164C29.4888 34.8374 29.9983 34.7479 30.5078 34.7479C31.9852 34.7479 33.2716 35.3616 34.3669 36.589C35.4877 37.8164 36.0482 39.2995 36.0482 41.0383C36.0482 43.0839 35.3349 44.81 33.9084 46.2164C32.5074 47.5972 30.788 48.2876 28.7501 48.2876C27.2472 48.2876 25.7952 47.8657 24.3942 47.0218C23.0187 46.1524 21.9361 44.9762 21.1464 43.4931C20.3822 41.9844 20.0001 40.2456 20.0001 38.2766C20.0001 35.0292 21.07 31.8584 23.2097 28.7643C25.3749 25.6702 28.2025 22.8447 31.6923 20.2876Z" fill="#4C70F0"/>
</svg>
