<svg width="46" height="61" viewBox="0 0 46 61" fill="none" xmlns="http://www.w3.org/2000/svg">
<path d="M33.0477 37.4517C34.1962 36.6665 35.7899 35.9868 35.7899 35.9868C35.7899 35.9868 31.2548 36.8071 26.743 37.1821C21.2235 37.6392 15.2938 37.7329 12.3173 37.3345C5.27429 36.397 16.1844 33.8071 16.1844 33.8071C16.1844 33.8071 11.954 33.5259 6.73913 36.0337C0.586789 39.0103 21.9735 40.3696 33.0477 37.4517ZM23.0399 33.6899C20.8134 28.686 13.3016 24.2915 23.0399 16.604C35.1876 7.01807 28.9579 0.783691 28.9579 0.783691C31.4774 10.686 20.0985 13.686 15.9852 19.8384C13.1844 24.0454 17.3563 28.5571 23.0399 33.6899ZM36.4696 13.0415C36.4813 13.0415 15.9384 18.1743 25.7469 29.4712C28.6415 32.7993 24.9852 35.7993 24.9852 35.7993C24.9852 35.7993 32.3329 32.0024 28.9579 27.2563C25.8055 22.8267 23.3915 20.6235 36.4696 13.0415ZM35.7548 44.7407C35.6907 44.8524 35.6119 44.9549 35.5204 45.0454C50.5555 41.0962 45.0243 31.1118 37.8407 33.6431C37.4527 33.7856 37.1175 34.0432 36.8798 34.3813C37.2992 34.2295 37.7303 34.112 38.1688 34.0298C41.8016 33.2681 47.0165 38.8931 35.7548 44.7407ZM41.2813 52.0415C41.2813 52.0415 42.9805 53.436 39.418 54.5259C32.6329 56.5767 11.1993 57.1978 5.24616 54.6079C3.10163 53.6821 7.12116 52.3813 8.38679 52.1118C9.69929 51.8306 10.461 51.8774 10.461 51.8774C8.0821 50.2017 -4.92571 55.1704 3.85163 56.5884C27.786 60.479 47.4923 54.8423 41.2813 52.0415ZM15.0829 47.1899C5.86023 49.7681 20.6962 55.0884 32.4383 50.061C31.2932 49.6161 30.1877 49.0751 29.1337 48.4438C23.8954 49.4399 21.4696 49.5103 16.7118 48.9712C12.786 48.5259 15.0829 47.1899 15.0829 47.1899ZM36.1532 58.5806C26.9305 60.3149 15.5516 60.1157 8.81335 59.0024C8.81335 58.9907 10.1962 60.1392 17.2977 60.5962C28.1024 61.2876 44.6962 60.2095 45.0829 55.1001C45.0829 55.1001 44.3329 57.0337 36.1532 58.5806ZM31.0438 42.1509C24.1063 43.4868 20.0868 43.4517 15.0126 42.9243C11.0868 42.5142 13.6532 40.6157 13.6532 40.6157C3.48132 43.9907 19.3016 47.811 33.5165 43.6509C32.5978 43.3265 31.756 42.8158 31.0438 42.1509Z" fill="#272847"/>
</svg>
