<svg width="45" height="51" viewBox="0 0 45 51" fill="none" xmlns="http://www.w3.org/2000/svg">
<path d="M22.4903 50.3022C21.8305 50.3022 21.1608 50.1237 20.5798 49.7863L14.5037 46.1649C13.5977 45.649 14.0409 45.4704 14.3363 45.3712C15.5476 44.9446 15.7938 44.8553 17.0838 44.1112C17.2217 44.0318 17.399 44.0616 17.5368 44.1508L22.2047 46.9388C22.3721 47.038 22.6084 47.038 22.766 46.9388L40.9549 36.3624C41.1223 36.2632 41.2307 36.0647 41.2307 35.8663V14.7134C41.2307 14.505 41.1223 14.3165 40.9451 14.2074L22.766 3.64087C22.5986 3.54166 22.3721 3.54166 22.2047 3.64087L4.03548 14.2173C3.85822 14.3165 3.7499 14.515 3.7499 14.7233V35.8663C3.7499 36.0647 3.85822 36.2632 4.03548 36.3525L9.01848 39.2496C11.7266 40.6088 13.3811 39.0114 13.3811 37.3942V16.5191C13.3811 16.2215 13.6174 15.9933 13.9128 15.9933H16.2172C16.5028 15.9933 16.749 16.2215 16.749 16.5191V37.4041C16.749 41.0355 14.7794 43.119 11.3623 43.119C10.3085 43.119 9.48132 43.119 7.17694 41.9681L2.4106 39.2C1.22886 38.5154 0.500122 37.2355 0.500122 35.8564V14.7134C0.500122 13.3442 1.22886 12.0544 2.4106 11.3698L20.5798 0.793366C21.732 0.138539 23.2584 0.138539 24.4007 0.793366L42.5896 11.3797C43.7714 12.0643 44.5001 13.3442 44.5001 14.7233V35.8663C44.5001 37.2355 43.7714 38.5154 42.5896 39.2099L24.4007 49.7863C23.8197 50.1237 23.1599 50.3022 22.4903 50.3022ZM37.1734 29.4569C37.1734 25.4982 34.5144 24.4465 28.9307 23.7024C23.2781 22.9483 22.7069 22.5614 22.7069 21.2319C22.7069 20.1306 23.1895 18.6622 27.3748 18.6622C31.1071 18.6622 32.4858 19.4758 33.057 22.0157C33.1062 22.2538 33.3229 22.4324 33.5691 22.4324H35.9325C36.0802 22.4324 36.2181 22.3729 36.3166 22.2638C36.4151 22.1546 36.4643 22.0058 36.4545 21.857C36.0901 17.4815 33.2047 15.4476 27.3748 15.4476C22.185 15.4476 19.0928 17.6502 19.0928 21.351C19.0928 25.3593 22.1751 26.4705 27.1483 26.9666C33.1062 27.552 33.5691 28.435 33.5691 29.6157C33.5691 31.6595 31.9343 32.5326 28.1035 32.5326C23.2879 32.5326 22.2342 31.3123 21.8797 28.9013C21.8403 28.6434 21.6237 28.4548 21.3578 28.4548H19.0042C18.7087 28.4548 18.4822 28.693 18.4822 28.9807C18.4822 32.0663 20.1465 35.7472 28.1134 35.7472C33.8645 35.7373 37.1734 33.4454 37.1734 29.4569Z" fill="#272847"/>
</svg>
