<svg width="54" height="54" viewBox="0 0 54 54" fill="none" xmlns="http://www.w3.org/2000/svg">
<path d="M52.2892 20.2799C51.3869 16.6588 49.6759 13.9284 46.0314 13.9284H41.3322V19.4831C41.3322 23.7956 37.676 27.4284 33.5041 27.4284H20.9885C17.5666 27.4284 14.7306 30.3581 14.7306 33.7916V45.7213C14.7306 49.1198 17.6838 51.112 20.9885 52.0846C24.9494 53.2448 28.758 53.4557 33.5041 52.0846C36.6564 51.1706 39.7619 49.3307 39.7619 45.7213V40.9518H27.258V39.3581H46.0314C49.6759 39.3581 51.0236 36.8151 52.2892 33.0065C53.6017 29.0807 53.5431 25.3073 52.2892 20.2799ZM34.2892 44.1276C35.59 44.1276 36.6447 45.194 36.6447 46.5065C36.6447 47.8307 35.59 48.8971 34.2892 48.8971C33.0002 48.8971 31.9338 47.819 31.9338 46.5065C31.9455 45.1823 33.0002 44.1276 34.2892 44.1276ZM20.4142 25.8581H32.9299C36.4103 25.8581 39.1877 22.987 39.1877 19.4948V7.55337C39.1877 4.15494 36.3283 1.61197 32.9299 1.03775C28.7345 0.346343 24.176 0.381499 20.4142 1.04947C15.1174 1.98697 14.1564 3.944 14.1564 7.56509V12.3346H26.6838V13.9284H9.4572C5.81267 13.9284 2.62517 16.1198 1.62908 20.2799C0.480641 25.0495 0.433766 28.026 1.62908 33.0065C2.5197 36.7096 4.6408 39.3581 8.28533 39.3581H12.5861V33.6393C12.5861 29.5026 16.1603 25.8581 20.4142 25.8581ZM19.6291 9.14712C18.3283 9.14712 17.2736 8.08072 17.2736 6.76822C17.2853 5.444 18.3283 4.37759 19.6291 4.37759C20.9181 4.37759 21.9845 5.45572 21.9845 6.76822C21.9845 8.08072 20.9299 9.14712 19.6291 9.14712Z" fill="#272847"/>
</svg>
