<svg width="46" height="54" viewBox="0 0 46 54" fill="none" xmlns="http://www.w3.org/2000/svg">
<path d="M7.25012 20.748V34.3184C7.25012 36.123 5.83215 37.5644 4.02747 37.5644C2.2345 37.5644 0.500122 36.1113 0.500122 34.3184V20.748C0.500122 18.9785 2.2345 17.5254 4.02747 17.5254C5.797 17.5254 7.25012 18.9785 7.25012 20.748ZM8.51575 39.1465C8.51575 41.0684 10.0626 42.6152 11.9845 42.6152H14.3165L14.3517 49.7754C14.3517 54.0996 20.8204 54.0644 20.8204 49.7754V42.6152H25.1798V49.7754C25.1798 54.0762 31.6837 54.0879 31.6837 49.7754V42.6152H34.0509C35.9493 42.6152 37.4962 41.0684 37.4962 39.1465V18.123H8.51575V39.1465ZM37.5782 16.9863H8.38684C8.38684 11.9707 11.3868 7.61132 15.84 5.33789L13.6017 1.20117C13.2736 0.626948 14.1056 0.263667 14.3868 0.755855L16.6603 4.92773C20.7501 3.11132 25.4493 3.20507 29.3517 4.92773L31.6134 0.767573C31.9064 0.263667 32.7267 0.638667 32.3986 1.21289L30.1603 5.33789C34.5782 7.61132 37.5782 11.9707 37.5782 16.9863ZM17.5743 10.4824C17.5743 9.81445 17.0353 9.25195 16.3439 9.25195C15.6759 9.25195 15.1486 9.81445 15.1486 10.4824C15.1486 11.1504 15.6876 11.7129 16.3439 11.7129C17.0353 11.7129 17.5743 11.1504 17.5743 10.4824ZM30.8634 10.4824C30.8634 9.81445 30.3243 9.25195 29.6681 9.25195C28.9767 9.25195 28.4376 9.81445 28.4376 10.4824C28.4376 11.1504 28.9767 11.7129 29.6681 11.7129C30.3243 11.7129 30.8634 11.1504 30.8634 10.4824ZM41.9728 17.5254C40.2032 17.5254 38.7501 18.9434 38.7501 20.748V34.3184C38.7501 36.123 40.2032 37.5644 41.9728 37.5644C43.7775 37.5644 45.5001 36.1113 45.5001 34.3184V20.748C45.5001 18.9434 43.7657 17.5254 41.9728 17.5254Z" fill="#272847"/>
</svg>
