<svg width="70" height="71" viewBox="0 0 70 71" fill="none" xmlns="http://www.w3.org/2000/svg">
<path d="M43.8037 35.9202C43.8049 38.4384 43.3507 40.9361 42.4629 43.2926C40.1055 44.1803 37.6072 44.6353 35.0883 44.6357H35.0588C32.4649 44.6324 29.9796 44.1583 27.6864 43.2937C26.7981 40.9369 26.3433 38.4389 26.3442 35.9202V35.8897C26.343 33.3719 26.7968 30.8747 27.6837 28.5184C30.0409 27.629 32.5397 27.1739 35.0591 27.1751H35.0885C37.6077 27.1738 40.1062 27.6289 42.4631 28.5181C43.351 30.8742 43.8053 33.3715 43.804 35.8894V35.92L43.8037 35.9202ZM69.5086 30.0851H49.1254L63.5377 15.6718C62.4065 14.0827 61.1446 12.5908 59.7653 11.2116V11.2105C58.3859 9.8328 56.8944 8.57209 55.3062 7.44139L40.8928 21.8547V1.4715C38.9759 1.14902 37.0354 0.986409 35.0915 0.985352L35.0555 0.985352C33.0782 0.986443 31.1415 1.15449 29.2542 1.4715V21.8547L14.8409 7.44139C13.2525 8.57178 11.7616 9.8334 10.384 11.213L10.3764 11.2184C8.99938 12.5959 7.7393 14.0855 6.60915 15.6718L21.0236 30.0851H0.640626C0.640626 30.0851 0.15448 33.9135 0.15448 35.893V35.917C0.15448 37.8965 0.322258 39.8364 0.640626 41.7248H21.0239L6.60942 56.1381C8.87692 59.3202 11.6589 62.1021 14.8409 64.3696L29.2542 49.9552V70.3395C31.1691 70.6604 33.1072 70.8226 35.0487 70.8246H35.0981C37.0397 70.8228 38.9777 70.6606 40.8926 70.3395V49.9552L55.3073 64.3696C56.8951 63.2385 58.3863 61.9775 59.7653 60.5994L59.7685 60.5961C61.146 59.2169 62.4067 57.7258 63.5377 56.1381L49.1232 41.7248H69.5086C69.8259 39.8397 69.9915 37.9055 69.9937 35.9303V35.8796C69.9915 33.9044 69.8259 31.9702 69.5086 30.0851Z" fill="#FF4A00"/>
</svg>
